<?xml version="1.0" encoding="UTF-8" standalone="no"?>
<!-- Created with Inkscape (http://www.inkscape.org/) -->

<svg
   xmlns:dc="http://purl.org/dc/elements/1.1/"
   xmlns:cc="http://creativecommons.org/ns#"
   xmlns:rdf="http://www.w3.org/1999/02/22-rdf-syntax-ns#"
   xmlns:svg="http://www.w3.org/2000/svg"
   xmlns="http://www.w3.org/2000/svg"
   version="1.1"
   width="560"
   height="688"
   id="svg2">
  <defs
     id="defs4" />
  <metadata
     id="metadata7">
    <rdf:RDF>
      <cc:Work
         rdf:about="">
        <dc:format>image/svg+xml</dc:format>
        <dc:type
           rdf:resource="http://purl.org/dc/dcmitype/StillImage" />
        <dc:title></dc:title>
      </cc:Work>
    </rdf:RDF>
  </metadata>
  <g
     transform="matrix(4,0,0,3.9999995,0,-3521.4481)"
     id="logo"
     style="fill:#000000">
    <path
       d="m 41.947,880.36218 -9.987379,0 0,22.56005 9.987379,0 0,-22.56005 m -9.987379,141.74802 c 0,13.61 -14.26771,19.6588 -31.959621,19.6588 l 0,10.5932 c 23.398999,0 41.947,-8.1282 41.947,-26.2749 l 0,-111.83097 -9.987379,0"
       id="letterj"
       style="fill:#000000;fill-opacity:1" />
    <path
       d="m 103.18982,1019.5551 c 0,15.9294 -10.55798,22.1798 -30.5325,22.1798 l 0,10.6273 c 25.6815,0 40.51976,-12.8953 40.51976,-32.8071 l 0,-28.82467 c 0,-4.55125 1.7121,-7.96471 7.13376,-11.37817 L 140,966.26736 120.31084,953.18248 c -5.42166,-3.41344 -7.13376,-6.8269 -7.13376,-11.37817 l 0,-28.8247 c 0,-19.91177 -14.83826,-32.61741 -40.51976,-32.61741 l 0,10.43798 c 19.97452,0 30.5325,6.25 30.5325,22.17943 l 0,30.34178 c 0,5.68908 2.56814,9.67146 8.27516,13.65381 l 13.98216,9.29216 -13.98216,9.48182 c -5.70702,3.79272 -8.27516,7.77509 -8.27516,13.46415 l 0,30.34177"
       id="braket"
       style="fill:#000000;fill-opacity:1" />
    <path
       d="m 92.12418,994.40272 c -13.07044,9.10028 -14.26528,8.60068 -25.7419,-7.61364 l -8.71986,6.07118 c 14.75562,20.84694 21.67676,22.19104 38.01482,10.81574 l -0.002,-11.60226"
       id="mouth"
       style="fill:#000000;fill-opacity:1" />
    <path
       d="m 199.02694,405.24969 a 3.5344169,3.5344169 0 1 1 -7.06883,0 3.5344169,3.5344169 0 1 1 7.06883,0 z"
       transform="matrix(1.9805247,0,0,1.9642844,-300.0169,137.97629)"
       id="eye"
       style="fill:#000000;fill-opacity:1" />
  </g>
</svg>
